<mxfile host="app.diagrams.net" modified="2022-03-21T17:04:37.921Z" agent="5.0 (Macintosh; Intel Mac OS X 10_15_7) AppleWebKit/605.1.15 (KHTML, like Gecko) Version/15.4 Safari/605.1.15" etag="ClNsyzSGxNXKwAEfrRvq" version="17.1.3" type="github" pages="2">
  <diagram id="wOVAOrB0Sv5tnJJlurr0" name="Page 1">
    <mxGraphModel dx="848" dy="598" grid="1" gridSize="10" guides="1" tooltips="1" connect="1" arrows="1" fold="1" page="1" pageScale="1" pageWidth="827" pageHeight="1169" math="0" shadow="0">
      <root>
        <mxCell id="0" />
        <mxCell id="1" parent="0" />
        <mxCell id="M1nprDgG9VEmIlbGBRFe-1" value="&lt;font size=&quot;3&quot;&gt;Backend&lt;br&gt;&lt;/font&gt;" style="outlineConnect=0;dashed=0;verticalLabelPosition=bottom;verticalAlign=top;align=center;html=1;shape=mxgraph.aws3.ec2_compute_container;fillColor=#F58534;gradientColor=none;" vertex="1" parent="1">
          <mxGeometry x="170" y="130" width="86.96" height="50" as="geometry" />
        </mxCell>
        <mxCell id="M1nprDgG9VEmIlbGBRFe-2" value="&lt;font size=&quot;3&quot;&gt;SKAT&lt;br&gt;Inegration&lt;br&gt;&lt;/font&gt;" style="outlineConnect=0;dashed=0;verticalLabelPosition=bottom;verticalAlign=top;align=center;html=1;shape=mxgraph.aws3.ec2_compute_container;fillColor=#F58534;gradientColor=none;" vertex="1" parent="1">
          <mxGeometry x="380" y="130" width="86.96" height="50" as="geometry" />
        </mxCell>
        <mxCell id="NHm1PNH-7ZZb8THmNI7j-1" value="&lt;font size=&quot;3&quot;&gt;Danske Bank&lt;br&gt;Inegration&lt;br&gt;&lt;/font&gt;" style="outlineConnect=0;dashed=0;verticalLabelPosition=bottom;verticalAlign=top;align=center;html=1;shape=mxgraph.aws3.ec2_compute_container;fillColor=#F58534;gradientColor=none;" vertex="1" parent="1">
          <mxGeometry x="380" y="250" width="86.96" height="50" as="geometry" />
        </mxCell>
      </root>
    </mxGraphModel>
  </diagram>
  <diagram id="u2pnDnKYAiL3e0MjdkJe" name="Kubernetes">
    <mxGraphModel dx="2025" dy="844" grid="1" gridSize="10" guides="1" tooltips="1" connect="1" arrows="1" fold="1" page="1" pageScale="1" pageWidth="827" pageHeight="1169" math="0" shadow="0">
      <root>
        <mxCell id="bOVY0tpIlTV-FHwqihau-0" />
        <mxCell id="bOVY0tpIlTV-FHwqihau-1" parent="bOVY0tpIlTV-FHwqihau-0" />
        <mxCell id="BuPOj6g-keYQxhdwFkMs-2" value="" style="rounded=1;whiteSpace=wrap;html=1;fontSize=16;strokeColor=#6B6B6B;fillColor=none;" vertex="1" parent="bOVY0tpIlTV-FHwqihau-1">
          <mxGeometry x="-10" y="300" width="845" height="1030" as="geometry" />
        </mxCell>
        <mxCell id="DlQv6pQFbsZOWuZ1JE_t-14" value="" style="rounded=0;whiteSpace=wrap;html=1;fontSize=16;fillColor=none;strokeColor=#6B6B6B;dashed=1;" vertex="1" parent="bOVY0tpIlTV-FHwqihau-1">
          <mxGeometry x="97.5" y="480" width="630" height="340" as="geometry" />
        </mxCell>
        <mxCell id="DlQv6pQFbsZOWuZ1JE_t-9" value="" style="rounded=1;whiteSpace=wrap;html=1;fontSize=16;fillColor=#fff2cc;strokeColor=none;" vertex="1" parent="bOVY0tpIlTV-FHwqihau-1">
          <mxGeometry x="110" y="580" width="300" height="220" as="geometry" />
        </mxCell>
        <mxCell id="DlQv6pQFbsZOWuZ1JE_t-1" value="" style="sketch=0;html=1;dashed=0;whitespace=wrap;fillColor=#2875E2;strokeColor=#ffffff;points=[[0.005,0.63,0],[0.1,0.2,0],[0.9,0.2,0],[0.5,0,0],[0.995,0.63,0],[0.72,0.99,0],[0.5,1,0],[0.28,0.99,0]];shape=mxgraph.kubernetes.icon;prIcon=pod;fontSize=16;" vertex="1" parent="bOVY0tpIlTV-FHwqihau-1">
          <mxGeometry x="300" y="619.5" width="51.8" height="50.5" as="geometry" />
        </mxCell>
        <mxCell id="DlQv6pQFbsZOWuZ1JE_t-2" value="Danske Bank&lt;br&gt;Inegration" style="text;html=1;resizable=0;autosize=1;align=center;verticalAlign=middle;points=[];fillColor=none;strokeColor=none;rounded=0;fontSize=16;" vertex="1" parent="bOVY0tpIlTV-FHwqihau-1">
          <mxGeometry x="270.9" y="670" width="110" height="40" as="geometry" />
        </mxCell>
        <mxCell id="DlQv6pQFbsZOWuZ1JE_t-5" value="" style="sketch=0;html=1;dashed=0;whitespace=wrap;fillColor=#2875E2;strokeColor=#ffffff;points=[[0.005,0.63,0],[0.1,0.2,0],[0.9,0.2,0],[0.5,0,0],[0.995,0.63,0],[0.72,0.99,0],[0.5,1,0],[0.28,0.99,0]];shape=mxgraph.kubernetes.icon;prIcon=pod;fontSize=16;" vertex="1" parent="bOVY0tpIlTV-FHwqihau-1">
          <mxGeometry x="163.44" y="619.5" width="53.12" height="50.5" as="geometry" />
        </mxCell>
        <mxCell id="DlQv6pQFbsZOWuZ1JE_t-6" value="SKAT&lt;br&gt;Inegration" style="text;html=1;resizable=0;autosize=1;align=center;verticalAlign=middle;points=[];fillColor=none;strokeColor=none;rounded=0;fontSize=16;" vertex="1" parent="bOVY0tpIlTV-FHwqihau-1">
          <mxGeometry x="144.99846153846153" y="670" width="90" height="40" as="geometry" />
        </mxCell>
        <mxCell id="DlQv6pQFbsZOWuZ1JE_t-10" value="Integration&lt;br&gt;Engine" style="text;html=1;strokeColor=none;fillColor=none;align=center;verticalAlign=middle;whiteSpace=wrap;rounded=0;fontSize=16;" vertex="1" parent="bOVY0tpIlTV-FHwqihau-1">
          <mxGeometry x="235" y="760" width="60" height="30" as="geometry" />
        </mxCell>
        <mxCell id="DlQv6pQFbsZOWuZ1JE_t-12" value="" style="rounded=1;whiteSpace=wrap;html=1;fontSize=16;fillColor=#dae8fc;strokeColor=none;" vertex="1" parent="bOVY0tpIlTV-FHwqihau-1">
          <mxGeometry x="410" y="580" width="300" height="220" as="geometry" />
        </mxCell>
        <mxCell id="bOVY0tpIlTV-FHwqihau-3" value="" style="sketch=0;html=1;dashed=0;whitespace=wrap;fillColor=#2875E2;strokeColor=#ffffff;points=[[0.005,0.63,0],[0.1,0.2,0],[0.9,0.2,0],[0.5,0,0],[0.995,0.63,0],[0.72,0.99,0],[0.5,1,0],[0.28,0.99,0]];shape=mxgraph.kubernetes.icon;prIcon=pod;fontSize=16;" vertex="1" parent="bOVY0tpIlTV-FHwqihau-1">
          <mxGeometry x="533.96" y="619.5" width="52.08" height="50" as="geometry" />
        </mxCell>
        <mxCell id="bOVY0tpIlTV-FHwqihau-4" value="Backend" style="text;html=1;resizable=0;autosize=1;align=center;verticalAlign=middle;points=[];fillColor=none;strokeColor=none;rounded=0;fontSize=16;" vertex="1" parent="bOVY0tpIlTV-FHwqihau-1">
          <mxGeometry x="520" y="670" width="80" height="20" as="geometry" />
        </mxCell>
        <mxCell id="DlQv6pQFbsZOWuZ1JE_t-15" value="App&lt;br&gt;Engine" style="text;html=1;strokeColor=none;fillColor=none;align=center;verticalAlign=middle;whiteSpace=wrap;rounded=0;fontSize=16;" vertex="1" parent="bOVY0tpIlTV-FHwqihau-1">
          <mxGeometry x="530" y="760" width="60" height="30" as="geometry" />
        </mxCell>
        <mxCell id="DlQv6pQFbsZOWuZ1JE_t-16" value="Kubernetes" style="sketch=0;aspect=fixed;html=1;points=[];align=center;image;fontSize=12;image=img/lib/mscae/Kubernetes.svg;fillColor=none;" vertex="1" parent="bOVY0tpIlTV-FHwqihau-1">
          <mxGeometry x="390" y="790" width="50" height="48" as="geometry" />
        </mxCell>
        <mxCell id="DlQv6pQFbsZOWuZ1JE_t-18" style="rounded=0;orthogonalLoop=1;jettySize=auto;html=1;entryX=0.5;entryY=0;entryDx=0;entryDy=0;entryPerimeter=0;fontSize=16;" edge="1" parent="bOVY0tpIlTV-FHwqihau-1" source="DlQv6pQFbsZOWuZ1JE_t-17" target="DlQv6pQFbsZOWuZ1JE_t-5">
          <mxGeometry relative="1" as="geometry" />
        </mxCell>
        <mxCell id="DlQv6pQFbsZOWuZ1JE_t-19" style="rounded=0;orthogonalLoop=1;jettySize=auto;html=1;entryX=0.5;entryY=0;entryDx=0;entryDy=0;entryPerimeter=0;fontSize=16;" edge="1" parent="bOVY0tpIlTV-FHwqihau-1" source="DlQv6pQFbsZOWuZ1JE_t-17" target="DlQv6pQFbsZOWuZ1JE_t-1">
          <mxGeometry relative="1" as="geometry" />
        </mxCell>
        <mxCell id="DlQv6pQFbsZOWuZ1JE_t-20" style="edgeStyle=none;rounded=0;orthogonalLoop=1;jettySize=auto;html=1;entryX=0.5;entryY=0;entryDx=0;entryDy=0;entryPerimeter=0;fontSize=16;" edge="1" parent="bOVY0tpIlTV-FHwqihau-1" source="DlQv6pQFbsZOWuZ1JE_t-17" target="bOVY0tpIlTV-FHwqihau-3">
          <mxGeometry relative="1" as="geometry" />
        </mxCell>
        <mxCell id="DlQv6pQFbsZOWuZ1JE_t-17" value="NGINX" style="rounded=0;whiteSpace=wrap;html=1;fontSize=16;fillColor=#d5e8d4;strokeColor=none;" vertex="1" parent="bOVY0tpIlTV-FHwqihau-1">
          <mxGeometry x="360" y="500" width="105" height="60" as="geometry" />
        </mxCell>
        <mxCell id="BuPOj6g-keYQxhdwFkMs-1" style="edgeStyle=none;rounded=0;orthogonalLoop=1;jettySize=auto;html=1;fontSize=16;" edge="1" parent="bOVY0tpIlTV-FHwqihau-1" source="BuPOj6g-keYQxhdwFkMs-0" target="DlQv6pQFbsZOWuZ1JE_t-17">
          <mxGeometry relative="1" as="geometry" />
        </mxCell>
        <mxCell id="BuPOj6g-keYQxhdwFkMs-0" value="Classic Load Balancer" style="sketch=0;outlineConnect=0;fontColor=#232F3E;gradientColor=none;strokeColor=#ffffff;fillColor=#232F3E;dashed=0;verticalLabelPosition=middle;verticalAlign=bottom;align=center;html=1;whiteSpace=wrap;fontSize=10;fontStyle=1;spacing=3;shape=mxgraph.aws4.productIcon;prIcon=mxgraph.aws4.classic_load_balancer;" vertex="1" parent="bOVY0tpIlTV-FHwqihau-1">
          <mxGeometry x="377" y="330" width="72.73" height="100" as="geometry" />
        </mxCell>
        <mxCell id="BuPOj6g-keYQxhdwFkMs-3" value="" style="outlineConnect=0;dashed=0;verticalLabelPosition=bottom;verticalAlign=top;align=center;html=1;shape=mxgraph.aws3.cloud_2;fillColor=#F58534;gradientColor=none;fontSize=16;strokeColor=#6B6B6B;" vertex="1" parent="bOVY0tpIlTV-FHwqihau-1">
          <mxGeometry x="-10" y="300" width="80" height="80" as="geometry" />
        </mxCell>
        <mxCell id="BuPOj6g-keYQxhdwFkMs-5" value="Amazon&lt;br&gt;RDS" style="outlineConnect=0;dashed=0;verticalLabelPosition=bottom;verticalAlign=top;align=center;html=1;shape=mxgraph.aws3.rds;fillColor=#2E73B8;gradientColor=none;fontSize=16;strokeColor=#6B6B6B;" vertex="1" parent="bOVY0tpIlTV-FHwqihau-1">
          <mxGeometry x="537.34" y="880" width="45.33" height="51" as="geometry" />
        </mxCell>
        <mxCell id="BuPOj6g-keYQxhdwFkMs-6" style="edgeStyle=none;rounded=0;orthogonalLoop=1;jettySize=auto;html=1;exitX=1;exitY=0;exitDx=0;exitDy=0;fontSize=16;" edge="1" parent="bOVY0tpIlTV-FHwqihau-1">
          <mxGeometry relative="1" as="geometry">
            <mxPoint x="567.5" y="879.9999999999998" as="sourcePoint" />
            <mxPoint x="567.5" y="879.9999999999998" as="targetPoint" />
          </mxGeometry>
        </mxCell>
        <mxCell id="BuPOj6g-keYQxhdwFkMs-8" value="" style="rounded=0;whiteSpace=wrap;html=1;fontSize=16;fillColor=none;strokeColor=#6B6B6B;dashed=1;" vertex="1" parent="bOVY0tpIlTV-FHwqihau-1">
          <mxGeometry x="80" y="320" width="670" height="690" as="geometry" />
        </mxCell>
      </root>
    </mxGraphModel>
  </diagram>
</mxfile>
